{"asset":{"version":"2.0","generator":"THREE.GLTFExporter"},"scenes":[{"name":"default","nodes":[0]}],"scene":0,"nodes":[{"name":"default","mesh":0}],"bufferViews":[{"buffer":0,"byteOffset":0,"byteLength":64872,"target":34962,"byteStride":12},{"buffer":0,"byteOffset":64872,"byteLength":64872,"target":34962,"byteStride":12},{"buffer":0,"byteOffset":129744,"byteLength":43248,"target":34962,"byteStride":8},{"buffer":0,"byteOffset":172992,"byteLength":86496,"target":34962,"byteStride":16},{"buffer":0,"byteOffset":259488,"byteLength":10812,"target":34963}],"buffers":[{"byteLength":270300,"uri":"data:application/octet-stream;base64,"}],"accessors":[{"bufferView":0,"componentType":5126,"count":5406,"max":[496.7660217285156,4,372],"min":[-4,-96,0],"type":"VEC3"},{"bufferView":1,"componentType":5126,"count":5406,"max":[1,1,1],"min":[-1,0,-1],"type":"VEC3"},{"bufferView":2,"componentType":5126,"count":5406,"max":[0.75,0.625],"min":[0,0],"type":"VEC2"},{"bufferView":3,"componentType":5126,"count":5406,"max":[1,1.1887589693069458,1,1],"min":[0.0012444605818018317,0.0012444605818018317,0.0012444605818018317,1],"type":"VEC4"},{"bufferView":4,"componentType":5123,"count":5406,"max":[5405],"min":[0],"type":"SCALAR"}],"materials":[{"pbrMetallicRoughness":{"metallicFactor":0,"roughnessFactor":1,"baseColorTexture":{"index":0}},"alphaMode":"MASK","alphaCutoff":0.01,"name":"underground_0"}],"textures":[{"sampler":0,"source":0,"name":"underground_0"}],"samplers":[{"magFilter":9728,"minFilter":9728,"wrapS":33071,"wrapT":33071}],"images":[{"mimeType":"image/png","uri":"underground_0.png"}],"meshes":[{"primitives":[{"mode":4,"attributes":{"POSITION":0,"NORMAL":1,"TEXCOORD_0":2,"COLOR_0":3},"indices":4,"material":0}]}]}