{"asset":{"version":"2.0","generator":"THREE.GLTFExporter"},"scenes":[{"name":"default","nodes":[0]}],"scene":0,"nodes":[{"name":"default","mesh":0}],"bufferViews":[{"buffer":0,"byteOffset":0,"byteLength":411840,"target":34962,"byteStride":12},{"buffer":0,"byteOffset":411840,"byteLength":411840,"target":34962,"byteStride":12},{"buffer":0,"byteOffset":823680,"byteLength":274560,"target":34962,"byteStride":8},{"buffer":0,"byteOffset":1098240,"byteLength":549120,"target":34962,"byteStride":16},{"buffer":0,"byteOffset":1647360,"byteLength":68640,"target":34963}],"buffers":[{"byteLength":1716000,"uri":"data:application/octet-stream;base64,"}],"accessors":[{"bufferView":0,"componentType":5126,"count":34320,"max":[408.7660217285156,-48,348],"min":[184.7660369873047,-88,100],"type":"VEC3"},{"bufferView":1,"componentType":5126,"count":34320,"max":[1,1,1],"min":[-1,-1,-1],"type":"VEC3"},{"bufferView":2,"componentType":5126,"count":34320,"max":[0.875,0.75],"min":[-3.4866003417732827e-9,0],"type":"VEC2"},{"bufferView":3,"componentType":5126,"count":34320,"max":[2.1583385467529297,2.1583385467529297,2.1583385467529297,1],"min":[0.0013827340444549918,0.0013827340444549918,0.0013827340444549918,1],"type":"VEC4"},{"bufferView":4,"componentType":5123,"count":34320,"max":[34319],"min":[0],"type":"SCALAR"}],"materials":[{"pbrMetallicRoughness":{"metallicFactor":0,"roughnessFactor":1,"baseColorTexture":{"index":0}},"alphaMode":"MASK","alphaCutoff":0.01,"name":"underground_0"}],"textures":[{"sampler":0,"source":0,"name":"underground_0"}],"samplers":[{"magFilter":9728,"minFilter":9728,"wrapS":33071,"wrapT":33071}],"images":[{"mimeType":"image/png","uri":"underground_0.png"}],"meshes":[{"primitives":[{"mode":4,"attributes":{"POSITION":0,"NORMAL":1,"TEXCOORD_0":2,"COLOR_0":3},"indices":4,"material":0}]}]}