{"asset":{"version":"2.0","generator":"THREE.GLTFExporter"},"scenes":[{"name":"default","nodes":[0]}],"scene":0,"nodes":[{"name":"default","mesh":0}],"bufferViews":[{"buffer":0,"byteOffset":0,"byteLength":371232,"target":34962,"byteStride":12},{"buffer":0,"byteOffset":371232,"byteLength":371232,"target":34962,"byteStride":12},{"buffer":0,"byteOffset":742464,"byteLength":247488,"target":34962,"byteStride":8},{"buffer":0,"byteOffset":989952,"byteLength":494976,"target":34962,"byteStride":16},{"buffer":0,"byteOffset":1484928,"byteLength":61872,"target":34963}],"buffers":[{"byteLength":1546800,"uri":"data:application/octet-stream;base64,"}],"accessors":[{"bufferView":0,"componentType":5126,"count":30936,"max":[616.7660522460938,-16,524],"min":[408.7660217285156,-96,268],"type":"VEC3"},{"bufferView":1,"componentType":5126,"count":30936,"max":[1,1,1],"min":[-1,-1,-1],"type":"VEC3"},{"bufferView":2,"componentType":5126,"count":30936,"max":[0.75,0.75],"min":[0,0.25],"type":"VEC2"},{"bufferView":3,"componentType":5126,"count":30936,"max":[0.4543955326080322,0.9627898931503296,0.817230761051178,1],"min":[0.003779042512178421,0.003779042512178421,0.003779042512178421,1],"type":"VEC4"},{"bufferView":4,"componentType":5123,"count":30936,"max":[30935],"min":[0],"type":"SCALAR"}],"materials":[{"pbrMetallicRoughness":{"metallicFactor":0,"roughnessFactor":1,"baseColorTexture":{"index":0}},"alphaMode":"MASK","alphaCutoff":0.01,"name":"underground_0"}],"textures":[{"sampler":0,"source":0,"name":"underground_0"}],"samplers":[{"magFilter":9728,"minFilter":9728,"wrapS":33071,"wrapT":33071}],"images":[{"mimeType":"image/png","uri":"underground_0.png"}],"meshes":[{"primitives":[{"mode":4,"attributes":{"POSITION":0,"NORMAL":1,"TEXCOORD_0":2,"COLOR_0":3},"indices":4,"material":0}]}]}