{"asset":{"version":"2.0","generator":"THREE.GLTFExporter"},"scenes":[{"name":"default","nodes":[0]}],"scene":0,"nodes":[{"name":"default","mesh":0}],"bufferViews":[{"buffer":0,"byteOffset":0,"byteLength":197568,"target":34962,"byteStride":12},{"buffer":0,"byteOffset":197568,"byteLength":197568,"target":34962,"byteStride":12},{"buffer":0,"byteOffset":395136,"byteLength":131712,"target":34962,"byteStride":8},{"buffer":0,"byteOffset":526848,"byteLength":263424,"target":34962,"byteStride":16},{"buffer":0,"byteOffset":790272,"byteLength":32928,"target":34963}],"buffers":[{"byteLength":823200,"uri":"data:application/octet-stream;base64,"}],"accessors":[{"bufferView":0,"componentType":5126,"count":16464,"max":[800.7660522460938,-72,636],"min":[566.3829956054688,-128,351.23394775390625],"type":"VEC3"},{"bufferView":1,"componentType":5126,"count":16464,"max":[1,1,1],"min":[-1,-1,-1],"type":"VEC3"},{"bufferView":2,"componentType":5126,"count":16464,"max":[0.875,1],"min":[0,0],"type":"VEC2"},{"bufferView":3,"componentType":5126,"count":16464,"max":[3.3269150257110596,1.3780649900436401,1.9904102087020874,1],"min":[0.005348735023289919,0.005348735023289919,0.005348735023289919,1],"type":"VEC4"},{"bufferView":4,"componentType":5123,"count":16464,"max":[16463],"min":[0],"type":"SCALAR"}],"materials":[{"pbrMetallicRoughness":{"metallicFactor":0,"roughnessFactor":1,"baseColorTexture":{"index":0}},"alphaMode":"MASK","alphaCutoff":0.01,"name":"underground_0"}],"textures":[{"sampler":0,"source":0,"name":"underground_0"}],"samplers":[{"magFilter":9728,"minFilter":9728,"wrapS":33071,"wrapT":33071}],"images":[{"mimeType":"image/png","uri":"underground_0.png"}],"meshes":[{"primitives":[{"mode":4,"attributes":{"POSITION":0,"NORMAL":1,"TEXCOORD_0":2,"COLOR_0":3},"indices":4,"material":0}]}]}