{"asset":{"version":"2.0","generator":"THREE.GLTFExporter"},"scenes":[{"name":"default","nodes":[0,1,2,3,4,5,6,7,8,9,10]}],"scene":0,"nodes":[{"matrix":[1,0,0,0,0,1,0,0,0,0,1,0,8.881784197001252e-16,9,-104,1],"name":"Road1","extras":{"data":{"name":"Road1","points":[{"name":"Origin","pos":{"x":0,"y":0,"z":0}}],"billboard":{"enabled":false,"y":false},"directional":{"enabled":false,"mode":"cameraAngle","angles":[]},"custom":[],"instance":{"name":"Road1","uuid":"7BFC513E-12EC-43C0-B788-E061B942EBF8","parent":null,"pos":{"x":0,"y":9,"z":-104},"rot":{"x":0,"y":0,"z":0,"order":"XYZ"},"sca":{"x":1,"y":1,"z":1},"custom":[]}}},"mesh":0},{"matrix":[1,0,0,0,0,1,0,0,0,0,1,0,8.881784197001252e-16,9,-104,1],"name":"Building1","extras":{"data":{"name":"Building1","points":[{"name":"Origin","pos":{"x":0,"y":0,"z":0}}],"billboard":{"enabled":false,"y":false},"directional":{"enabled":false,"mode":"cameraAngle","angles":[]},"custom":[],"instance":{"name":"Building1","uuid":"08DA2814-D234-4170-850B-1E4F02C237FD","parent":null,"pos":{"x":0,"y":9,"z":-104},"rot":{"x":0,"y":0,"z":0,"order":"XYZ"},"sca":{"x":1,"y":1,"z":1},"custom":[]}}},"mesh":1},{"name":"EntranceTunnel","extras":{"data":{"name":"EntranceTunnel","points":[{"name":"Origin","pos":{"x":0,"y":0,"z":0}}],"billboard":{"enabled":false,"y":false},"directional":{"enabled":false,"mode":"cameraAngle","angles":[]},"custom":[],"instance":{"name":"EntranceTunnel","uuid":"565F8E5E-23AD-4FB1-A217-AA706A5A775F","parent":null,"pos":{"x":0,"y":0,"z":0},"rot":{"x":0,"y":0,"z":0,"order":"XYZ"},"sca":{"x":1,"y":1,"z":1},"custom":[]}}},"mesh":2},{"matrix":[1,0,0,0,0,1,0,0,0,0,1,0,720.7660318793336,-128,459.999998460029,1],"name":"ExitTunnel","extras":{"data":{"name":"ExitTunnel","points":[{"name":"Origin","pos":{"x":0,"y":0,"z":0}}],"billboard":{"enabled":false,"y":false},"directional":{"enabled":false,"mode":"cameraAngle","angles":[]},"custom":[],"instance":{"name":"ExitTunnel","uuid":"7DB5B2F6-EDE3-4E13-BAA5-E18539153CE7","parent":null,"pos":{"x":720.765,"y":-128,"z":460},"rot":{"x":0,"y":0,"z":0,"order":"XYZ"},"sca":{"x":1,"y":1,"z":1},"custom":[]}}},"mesh":3},{"name":"Lot01","extras":{"data":{"name":"Lot01","points":[{"name":"Origin","pos":{"x":0,"y":0,"z":0}}],"billboard":{"enabled":false,"y":false},"directional":{"enabled":false,"mode":"cameraAngle","angles":[]},"custom":[],"instance":{"name":"Lot01","uuid":"59265F5E-7FA1-4A9F-A545-C69D0F5AC186","parent":null,"pos":{"x":0,"y":0,"z":0},"rot":{"x":0,"y":0,"z":0,"order":"XYZ"},"sca":{"x":1,"y":1,"z":1},"custom":[]}}},"mesh":4},{"matrix":[1,0,0,0,0,1,0,0,0,0,1,0,254.000001,-68,50.00000132104492,1],"name":"JumpTunnel","extras":{"data":{"name":"JumpTunnel","points":[{"name":"Origin","pos":{"x":0,"y":0,"z":0}}],"billboard":{"enabled":false,"y":false},"directional":{"enabled":false,"mode":"cameraAngle","angles":[]},"custom":[],"instance":{"name":"JumpTunnel","uuid":"B7ED025A-1940-4C77-B263-07059B1A2B6B","parent":null,"pos":{"x":254,"y":-68,"z":50},"rot":{"x":0,"y":0,"z":0,"order":"XYZ"},"sca":{"x":1,"y":1,"z":1},"custom":[]}}},"mesh":5},{"matrix":[1,0,0,0,0,1,0,0,0,0,1,0,408.76603283300784,-80,339.99999846002197,1],"name":"BrickGarage","extras":{"data":{"name":"BrickGarage","points":[{"name":"Origin","pos":{"x":0,"y":0,"z":0}}],"billboard":{"enabled":false,"y":false},"directional":{"enabled":false,"mode":"cameraAngle","angles":[]},"custom":[],"instance":{"name":"BrickGarage","uuid":"3F2FEB33-B898-400F-A32B-D5EFF39623EE","parent":null,"pos":{"x":408.765,"y":-80,"z":340},"rot":{"x":0,"y":0,"z":0,"order":"XYZ"},"sca":{"x":1,"y":1,"z":1},"custom":[]}}},"mesh":6},{"matrix":[1,0,0,0,0,1,0,0,0,0,1,0,720.7660318793336,-128,459.999998460029,1],"name":"WaterRoom","extras":{"data":{"name":"WaterRoom","points":[{"name":"Origin","pos":{"x":0,"y":0,"z":0}}],"billboard":{"enabled":false,"y":false},"directional":{"enabled":false,"mode":"cameraAngle","angles":[]},"custom":[],"instance":{"name":"WaterRoom","uuid":"E3307424-1169-461F-A037-6C9E7FF3BF61","parent":null,"pos":{"x":720.765,"y":-128,"z":460},"rot":{"x":0,"y":0,"z":0,"order":"XYZ"},"sca":{"x":1,"y":1,"z":1},"custom":[]}}},"mesh":7},{"matrix":[1,0,0,0,0,1,0,0,0,0,1,0,720.7660318793336,-128,459.999998460029,1],"name":"FinalOutdoors","extras":{"data":{"name":"FinalOutdoors","points":[{"name":"Origin","pos":{"x":0,"y":0,"z":0}}],"billboard":{"enabled":false,"y":false},"directional":{"enabled":false,"mode":"cameraAngle","angles":[]},"custom":[],"instance":{"name":"FinalOutdoors","uuid":"2C52643B-0278-466C-B76C-CD3C40066426","parent":null,"pos":{"x":720.765,"y":-128,"z":460},"rot":{"x":0,"y":0,"z":0,"order":"XYZ"},"sca":{"x":1,"y":1,"z":1},"custom":[]}}},"mesh":8},{"matrix":[1,0,0,0,0,1,0,0,0,0,1,0,284.766033,-66,221.99999846002902,1],"name":"CurveTunnel","extras":{"data":{"name":"CurveTunnel","points":[{"name":"Origin","pos":{"x":0,"y":0,"z":0}}],"billboard":{"enabled":false,"y":false},"directional":{"enabled":false,"mode":"cameraAngle","angles":[]},"custom":[],"instance":{"name":"CurveTunnel","uuid":"3E535687-8F64-4287-867A-FEDF6E4DBD1E","parent":null,"pos":{"x":284.765,"y":-66,"z":222},"rot":{"x":0,"y":0,"z":0,"order":"XYZ"},"sca":{"x":1,"y":1,"z":1},"custom":[]}}},"mesh":9},{"matrix":[1,0,0,0,0,1,0,0,0,0,1,0,658.7660318793336,-122,471.999998460029,1],"name":"FinalSpirals","extras":{"data":{"name":"FinalSpirals","points":[{"name":"Origin","pos":{"x":0,"y":0,"z":0}}],"billboard":{"enabled":false,"y":false},"directional":{"enabled":false,"mode":"cameraAngle","angles":[]},"custom":[],"instance":{"name":"FinalSpirals","uuid":"AF125A78-6E14-49F3-9C3C-0A64A18799D6","parent":null,"pos":{"x":658.765,"y":-122,"z":472},"rot":{"x":0,"y":0,"z":0,"order":"XYZ"},"sca":{"x":1,"y":1,"z":1},"custom":[]}}},"mesh":10}],"bufferViews":[{"buffer":0,"byteOffset":0,"byteLength":16272,"target":34962,"byteStride":12},{"buffer":0,"byteOffset":16272,"byteLength":16272,"target":34962,"byteStride":12},{"buffer":0,"byteOffset":32544,"byteLength":10848,"target":34962,"byteStride":8},{"buffer":0,"byteOffset":43392,"byteLength":21696,"target":34962,"byteStride":16},{"buffer":0,"byteOffset":65088,"byteLength":2712,"target":34963},{"buffer":0,"byteOffset":67800,"byteLength":12240,"target":34962,"byteStride":12},{"buffer":0,"byteOffset":80040,"byteLength":12240,"target":34962,"byteStride":12},{"buffer":0,"byteOffset":92280,"byteLength":8160,"target":34962,"byteStride":8},{"buffer":0,"byteOffset":100440,"byteLength":16320,"target":34962,"byteStride":16},{"buffer":0,"byteOffset":116760,"byteLength":2040,"target":34963},{"buffer":0,"byteOffset":118800,"byteLength":101376,"target":34962,"byteStride":12},{"buffer":0,"byteOffset":220176,"byteLength":101376,"target":34962,"byteStride":12},{"buffer":0,"byteOffset":321552,"byteLength":67584,"target":34962,"byteStride":8},{"buffer":0,"byteOffset":389136,"byteLength":135168,"target":34962,"byteStride":16},{"buffer":0,"byteOffset":524304,"byteLength":16896,"target":34963},{"buffer":0,"byteOffset":541200,"byteLength":25632,"target":34962,"byteStride":12},{"buffer":0,"byteOffset":566832,"byteLength":25632,"target":34962,"byteStride":12},{"buffer":0,"byteOffset":592464,"byteLength":17088,"target":34962,"byteStride":8},{"buffer":0,"byteOffset":609552,"byteLength":34176,"target":34962,"byteStride":16},{"buffer":0,"byteOffset":643728,"byteLength":4272,"target":34963},{"buffer":0,"byteOffset":648000,"byteLength":71928,"target":34962,"byteStride":12},{"buffer":0,"byteOffset":719928,"byteLength":71928,"target":34962,"byteStride":12},{"buffer":0,"byteOffset":791856,"byteLength":47952,"target":34962,"byteStride":8},{"buffer":0,"byteOffset":839808,"byteLength":95904,"target":34962,"byteStride":16},{"buffer":0,"byteOffset":935712,"byteLength":11988,"target":34963},{"buffer":0,"byteOffset":947700,"byteLength":1152,"target":34962,"byteStride":12},{"buffer":0,"byteOffset":948852,"byteLength":1152,"target":34962,"byteStride":12},{"buffer":0,"byteOffset":950004,"byteLength":768,"target":34962,"byteStride":8},{"buffer":0,"byteOffset":950772,"byteLength":1536,"target":34962,"byteStride":16},{"buffer":0,"byteOffset":952308,"byteLength":192,"target":34963},{"buffer":0,"byteOffset":952500,"byteLength":102960,"target":34962,"byteStride":12},{"buffer":0,"byteOffset":1055460,"byteLength":102960,"target":34962,"byteStride":12},{"buffer":0,"byteOffset":1158420,"byteLength":68640,"target":34962,"byteStride":8},{"buffer":0,"byteOffset":1227060,"byteLength":137280,"target":34962,"byteStride":16},{"buffer":0,"byteOffset":1364340,"byteLength":17160,"target":34963},{"buffer":0,"byteOffset":1381500,"byteLength":92808,"target":34962,"byteStride":12},{"buffer":0,"byteOffset":1474308,"byteLength":92808,"target":34962,"byteStride":12},{"buffer":0,"byteOffset":1567116,"byteLength":61872,"target":34962,"byteStride":8},{"buffer":0,"byteOffset":1628988,"byteLength":123744,"target":34962,"byteStride":16},{"buffer":0,"byteOffset":1752732,"byteLength":15468,"target":34963},{"buffer":0,"byteOffset":1768200,"byteLength":9576,"target":34962,"byteStride":12},{"buffer":0,"byteOffset":1777776,"byteLength":9576,"target":34962,"byteStride":12},{"buffer":0,"byteOffset":1787352,"byteLength":6384,"target":34962,"byteStride":8},{"buffer":0,"byteOffset":1793736,"byteLength":12768,"target":34962,"byteStride":16},{"buffer":0,"byteOffset":1806504,"byteLength":1596,"target":34963},{"buffer":0,"byteOffset":1808100,"byteLength":5472,"target":34962,"byteStride":12},{"buffer":0,"byteOffset":1813572,"byteLength":5472,"target":34962,"byteStride":12},{"buffer":0,"byteOffset":1819044,"byteLength":3648,"target":34962,"byteStride":8},{"buffer":0,"byteOffset":1822692,"byteLength":7296,"target":34962,"byteStride":16},{"buffer":0,"byteOffset":1829988,"byteLength":912,"target":34963},{"buffer":0,"byteOffset":1830900,"byteLength":55296,"target":34962,"byteStride":12},{"buffer":0,"byteOffset":1886196,"byteLength":55296,"target":34962,"byteStride":12},{"buffer":0,"byteOffset":1941492,"byteLength":36864,"target":34962,"byteStride":8},{"buffer":0,"byteOffset":1978356,"byteLength":73728,"target":34962,"byteStride":16},{"buffer":0,"byteOffset":2052084,"byteLength":9216,"target":34963}],"buffers":[{"byteLength":2061300,"uri":"data:application/octet-stream;base64,"}],"accessors":[{"bufferView":0,"componentType":5126,"count":1356,"max":[40,-8,-20],"min":[-96,-12,-44],"type":"VEC3"},{"bufferView":1,"componentType":5126,"count":1356,"max":[1,1,1],"min":[-0.24253562092781067,-1,-1],"type":"VEC3"},{"bufferView":2,"componentType":5126,"count":1356,"max":[0.375,0.53125],"min":[0,0],"type":"VEC2"},{"bufferView":3,"componentType":5126,"count":1356,"max":[1,1,1,1],"min":[1,1,1,1],"type":"VEC4"},{"bufferView":4,"componentType":5123,"count":1356,"max":[1355],"min":[0],"type":"SCALAR"},{"bufferView":5,"componentType":5126,"count":1020,"max":[40,23,-20],"min":[-48,-9,-20],"type":"VEC3"},{"bufferView":6,"componentType":5126,"count":1020,"max":[0,0,-1],"min":[0,0,-1],"type":"VEC3"},{"bufferView":7,"componentType":5126,"count":1020,"max":[0.25,0.75],"min":[0,0.5],"type":"VEC2"},{"bufferView":8,"componentType":5126,"count":1020,"max":[1,1,1,1],"min":[1,1,1,1],"type":"VEC4"},{"bufferView":9,"componentType":5123,"count":1020,"max":[1019],"min":[0],"type":"SCALAR"},{"bufferView":10,"componentType":5126,"count":8448,"max":[24,12,-33.61698532104492],"min":[-22.38301658630371,-19,-128],"type":"VEC3"},{"bufferView":11,"componentType":5126,"count":8448,"max":[1,1,1],"min":[-1,-1,-1],"type":"VEC3"},{"bufferView":12,"componentType":5126,"count":8448,"max":[0.5,0.75],"min":[0,0.25],"type":"VEC2"},{"bufferView":13,"componentType":5126,"count":8448,"max":[0.8862719535827637,0.6796287298202515,0.44618502259254456,1],"min":[0.0031730278860777617,0.0031730278860777617,0.0031730278860777617,1],"type":"VEC4"},{"bufferView":14,"componentType":5123,"count":8448,"max":[8447],"min":[0],"type":"SCALAR"},{"bufferView":15,"componentType":5126,"count":2136,"max":[0,8,16],"min":[-104,0,-8.000003814697266],"type":"VEC3"},{"bufferView":16,"componentType":5126,"count":2136,"max":[1,1,1],"min":[-0.7071069478988647,-1,-1],"type":"VEC3"},{"bufferView":17,"componentType":5126,"count":2136,"max":[0.5,0.75],"min":[0,0.25],"type":"VEC2"},{"bufferView":18,"componentType":5126,"count":2136,"max":[0.6209748387336731,0.8343846201896667,0.9361786246299744,1],"min":[0.005561145953834057,0.005635214503854513,0.005666809622198343,1],"type":"VEC4"},{"bufferView":19,"componentType":5123,"count":2136,"max":[2135],"min":[0],"type":"SCALAR"},{"bufferView":20,"componentType":5126,"count":5994,"max":[113.61698150634766,-3,158.3830108642578],"min":[-62.383018493652344,-19,-33.61698532104492],"type":"VEC3"},{"bufferView":21,"componentType":5126,"count":5994,"max":[1,1,1],"min":[-1,-1,-1],"type":"VEC3"},{"bufferView":22,"componentType":5126,"count":5994,"max":[0.875,0.75],"min":[0.25,0],"type":"VEC2"},{"bufferView":23,"componentType":5126,"count":5994,"max":[0.7067174315452576,0.7067174315452576,0.7067174315452576,1],"min":[0.003111151745542884,0.003111151745542884,0.003111151745542884,1],"type":"VEC4"},{"bufferView":24,"componentType":5123,"count":5994,"max":[5993],"min":[0],"type":"SCALAR"},{"bufferView":25,"componentType":5126,"count":96,"max":[10.766032218933105,-4,49.999996185302734],"min":[2.7660317420959473,-16,17.999996185302734],"type":"VEC3"},{"bufferView":26,"componentType":5126,"count":96,"max":[1,1,0.4472135901451111],"min":[-1,-1,-0.4472135901451111],"type":"VEC3"},{"bufferView":27,"componentType":5126,"count":96,"max":[0.5,0.75],"min":[0,0.25],"type":"VEC2"},{"bufferView":28,"componentType":5126,"count":96,"max":[0.08523206412792206,0.12067122012376785,0.12632648646831512,1],"min":[0.00834317971020937,0.00834317971020937,0.00834317971020937,1],"type":"VEC4"},{"bufferView":29,"componentType":5123,"count":96,"max":[95],"min":[0],"type":"SCALAR"},{"bufferView":30,"componentType":5126,"count":8580,"max":[1.6699215166227077e-7,32,8],"min":[-224,-8,-240],"type":"VEC3"},{"bufferView":31,"componentType":5126,"count":8580,"max":[1,1,1],"min":[-1,-1,-1],"type":"VEC3"},{"bufferView":32,"componentType":5126,"count":8580,"max":[0.875,0.75],"min":[-3.4866003417732827e-9,0],"type":"VEC2"},{"bufferView":33,"componentType":5126,"count":8580,"max":[0.6783067584037781,0.6783067584037781,0.6783067584037781,1],"min":[0,0,0,1],"type":"VEC4"},{"bufferView":34,"componentType":5123,"count":8580,"max":[8579],"min":[0],"type":"SCALAR"},{"bufferView":35,"componentType":5126,"count":7734,"max":[-104,112,64],"min":[-312,32,-192],"type":"VEC3"},{"bufferView":36,"componentType":5126,"count":7734,"max":[1,1,1],"min":[-1,-1,-1],"type":"VEC3"},{"bufferView":37,"componentType":5126,"count":7734,"max":[0.75,0.75],"min":[0,0.25],"type":"VEC2"},{"bufferView":38,"componentType":5126,"count":7734,"max":[1.2944601774215698,4.433798789978027,4.000417709350586,1],"min":[0.00364391109906137,0.0038285963237285614,0.0038292924873530865,1],"type":"VEC4"},{"bufferView":39,"componentType":5123,"count":7734,"max":[7733],"min":[0],"type":"SCALAR"},{"bufferView":40,"componentType":5126,"count":798,"max":[20,24,64],"min":[0,0,-56],"type":"VEC3"},{"bufferView":41,"componentType":5126,"count":798,"max":[1,1,0.24253568053245544],"min":[0,-1.50833017187324e-8,-0.2425355762243271],"type":"VEC3"},{"bufferView":42,"componentType":5126,"count":798,"max":[0.375,0.75],"min":[0,0],"type":"VEC2"},{"bufferView":43,"componentType":5126,"count":798,"max":[1,1,1,1],"min":[1,1,1,1],"type":"VEC4"},{"bufferView":44,"componentType":5123,"count":798,"max":[797],"min":[0],"type":"SCALAR"},{"bufferView":45,"componentType":5126,"count":456,"max":[-20.000011444091797,55,-95.61698150634766],"min":[-171.1490478515625,-14,-196.3830108642578],"type":"VEC3"},{"bufferView":46,"componentType":5126,"count":456,"max":[0.9989933371543884,0.9922778606414795,1],"min":[-0.9996338486671448,-0.9922778606414795,-1],"type":"VEC3"},{"bufferView":47,"componentType":5126,"count":456,"max":[0.5,0.75],"min":[0,0.25],"type":"VEC2"},{"bufferView":48,"componentType":5126,"count":456,"max":[0.13332517445087433,0.19308878481388092,0.20269131660461426,1],"min":[0.00623551057651639,0.00623551057651639,0.00623551057651639,1],"type":"VEC4"},{"bufferView":49,"componentType":5123,"count":456,"max":[455],"min":[0],"type":"SCALAR"},{"bufferView":50,"componentType":5126,"count":4608,"max":[16.38301658630371,50,104.76605224609375],"min":[-92.3830337524414,-6,-120.76602172851562],"type":"VEC3"},{"bufferView":51,"componentType":5126,"count":4608,"max":[0.9989933967590332,0.9902222752571106,0.9989932775497437],"min":[-0.9989931583404541,-0.9902423620223999,-0.9989932775497437],"type":"VEC3"},{"bufferView":52,"componentType":5126,"count":4608,"max":[0.5,0.75],"min":[0,0.25],"type":"VEC2"},{"bufferView":53,"componentType":5126,"count":4608,"max":[3.3269150257110596,1.307713270187378,1.9904102087020874,1],"min":[0.00623551057651639,0.00623551057651639,0.00623551057651639,1],"type":"VEC4"},{"bufferView":54,"componentType":5123,"count":4608,"max":[4607],"min":[0],"type":"SCALAR"}],"materials":[{"pbrMetallicRoughness":{"metallicFactor":0,"roughnessFactor":1,"baseColorTexture":{"index":0}},"alphaMode":"MASK","alphaCutoff":0.01,"name":"underground_0"}],"textures":[{"sampler":0,"source":0,"name":"underground_0"}],"samplers":[{"magFilter":9728,"minFilter":9728,"wrapS":33071,"wrapT":33071}],"images":[{"mimeType":"image/png","uri":"underground_0.png"}],"meshes":[{"primitives":[{"mode":4,"attributes":{"POSITION":0,"NORMAL":1,"TEXCOORD_0":2,"COLOR_0":3},"indices":4,"material":0}]},{"primitives":[{"mode":4,"attributes":{"POSITION":5,"NORMAL":6,"TEXCOORD_0":7,"COLOR_0":8},"indices":9,"material":0}]},{"primitives":[{"mode":4,"attributes":{"POSITION":10,"NORMAL":11,"TEXCOORD_0":12,"COLOR_0":13},"indices":14,"material":0}]},{"primitives":[{"mode":4,"attributes":{"POSITION":15,"NORMAL":16,"TEXCOORD_0":17,"COLOR_0":18},"indices":19,"material":0}]},{"primitives":[{"mode":4,"attributes":{"POSITION":20,"NORMAL":21,"TEXCOORD_0":22,"COLOR_0":23},"indices":24,"material":0}]},{"primitives":[{"mode":4,"attributes":{"POSITION":25,"NORMAL":26,"TEXCOORD_0":27,"COLOR_0":28},"indices":29,"material":0}]},{"primitives":[{"mode":4,"attributes":{"POSITION":30,"NORMAL":31,"TEXCOORD_0":32,"COLOR_0":33},"indices":34,"material":0}]},{"primitives":[{"mode":4,"attributes":{"POSITION":35,"NORMAL":36,"TEXCOORD_0":37,"COLOR_0":38},"indices":39,"material":0}]},{"primitives":[{"mode":4,"attributes":{"POSITION":40,"NORMAL":41,"TEXCOORD_0":42,"COLOR_0":43},"indices":44,"material":0}]},{"primitives":[{"mode":4,"attributes":{"POSITION":45,"NORMAL":46,"TEXCOORD_0":47,"COLOR_0":48},"indices":49,"material":0}]},{"primitives":[{"mode":4,"attributes":{"POSITION":50,"NORMAL":51,"TEXCOORD_0":52,"COLOR_0":53},"indices":54,"material":0}]}]}