{"asset":{"version":"2.0","generator":"THREE.GLTFExporter"},"scenes":[{"name":"default","nodes":[0]}],"scene":0,"nodes":[{"name":"default","mesh":0}],"bufferViews":[{"buffer":0,"byteOffset":0,"byteLength":319752,"target":34962,"byteStride":12},{"buffer":0,"byteOffset":319752,"byteLength":319752,"target":34962,"byteStride":12},{"buffer":0,"byteOffset":639504,"byteLength":213168,"target":34962,"byteStride":8},{"buffer":0,"byteOffset":852672,"byteLength":426336,"target":34962,"byteStride":16},{"buffer":0,"byteOffset":1279008,"byteLength":53292,"target":34963}],"buffers":[{"byteLength":1332300,"uri":"data:application/octet-stream;base64,"}],"accessors":[{"bufferView":0,"componentType":5126,"count":26646,"max":[64,32.5,-35.61698532104492],"min":[-96,-19,-202],"type":"VEC3"},{"bufferView":1,"componentType":5126,"count":26646,"max":[1,1,1],"min":[-1,-1,-1],"type":"VEC3"},{"bufferView":2,"componentType":5126,"count":26646,"max":[0.875,1],"min":[0,0],"type":"VEC2"},{"bufferView":3,"componentType":5126,"count":26646,"max":[0.8230129480361938,1.1754332780838013,1.2027784585952759,1],"min":[0,0,0,1],"type":"VEC4"},{"bufferView":4,"componentType":5123,"count":26646,"max":[26645],"min":[0],"type":"SCALAR"}],"materials":[{"pbrMetallicRoughness":{"metallicFactor":0,"roughnessFactor":1,"baseColorTexture":{"index":0}},"alphaMode":"MASK","alphaCutoff":0.01,"name":"underground_0"}],"textures":[{"sampler":0,"source":0,"name":"underground_0"}],"samplers":[{"magFilter":9728,"minFilter":9728,"wrapS":33071,"wrapT":33071}],"images":[{"mimeType":"image/png","uri":"underground_0.png"}],"meshes":[{"primitives":[{"mode":4,"attributes":{"POSITION":0,"NORMAL":1,"TEXCOORD_0":2,"COLOR_0":3},"indices":4,"material":0}]}]}